# xmcd
#
# Track frame offsets: 
#        150
#        20619
#        38581
#        57691
#        76642
#        98543
#        115948
#        136439
#        154218
#        170922
#        192402
#        213141
#        234253
#        254553
#        274500
#        293982
#
# Disc length: 4193 seconds
#
# Revision: 1
# Processed by: cddbd v1.5.2PL0 Copyright (c) Steve Scherf et al.
# Submitted via: ExactAudioCopyFreeDBPlugin 1.0
#
DISCID=df105f10
DTITLE=Varios Artistas - Los Mejores del Merengue [CD2)
DYEAR=2000
DGENRE=Merengue
TTITLE0=The New York band - Si tu eres mi hombre y yo tu mujer
TTITLE1=Rubby Pérez - Buscando tus besos
TTITLE2=Juan Luis Guerra - Ay mujer
TTITLE3=Wilfrido Vargas - Abusadora
TTITLE4=Alex Bueno - Me muero por ella
TTITLE5=Las Chicas Del Can - Besos callejeros
TTITLE6=Alex Bueno - A donde vayas
TTITLE7=Sergio Vargas - Maquinolandera
TTITLE8=Wilfrido Vargas - Cuando estés con él
TTITLE9=Juan Luis Guerra - De tu boca
TTITLE10=Rubby Pérez - Enamorada de ella
TTITLE11=Los Hermanos Rosario - Hola
TTITLE12=The New York Band - Cada dia te amo más
TTITLE13=Diony Fernández - Me estremeces
TTITLE14=Los Hermanos Rosario - Esa morena
TTITLE15=La Familia André - De oro
EXTD=YEAR: 2000
EXTT0=
EXTT1=
EXTT2=
EXTT3=
EXTT4=
EXTT5=
EXTT6=
EXTT7=
EXTT8=
EXTT9=
EXTT10=
EXTT11=
EXTT12=
EXTT13=
EXTT14=
EXTT15=
PLAYORDER=
